<svg xmlns="http://www.w3.org/2000/svg" width="24" height="24" viewBox="0 0 24 24"><defs><style>.a{fill:#666;fill-rule:evenodd;}</style></defs><path class="a" d="M14.15,13.3a4.407,4.407,0,0,0-.95-.65,3.5,3.5,0,0,0-1.2-.2,3.325,3.325,0,0,0-1.15.2,3.19,3.19,0,0,0-.95.65,3.234,3.234,0,0,0-.65.95A2.859,2.859,0,0,0,9,15.45,2.74,2.74,0,0,0,9.25,16.6a3.123,3.123,0,0,0,1.6,1.6,2.76,2.76,0,0,0,1.15.25,2.875,2.875,0,0,0,1.2-.25,4.444,4.444,0,0,0,.95-.65,3.181,3.181,0,0,0,.649-.95A3.319,3.319,0,0,0,15,15.45a3.466,3.466,0,0,0-.2-1.2A3.163,3.163,0,0,0,14.15,13.3Zm1.2-1.2a4.53,4.53,0,0,1,1,1.5,4.289,4.289,0,0,1,.4,1.851,4.188,4.188,0,0,1-.4,1.8,4.6,4.6,0,0,1-2.5,2.5,4.5,4.5,0,0,1-1.85.4,4.188,4.188,0,0,1-1.8-.4,4.53,4.53,0,0,1-1.5-1,5.278,5.278,0,0,1-1.05-1.5,4.686,4.686,0,0,1-.35-1.8A4.827,4.827,0,0,1,7.65,13.6,5.318,5.318,0,0,1,8.7,12.1a4.53,4.53,0,0,1,1.5-1,4.17,4.17,0,0,1,1.8-.4,4.5,4.5,0,0,1,1.85.4A4.545,4.545,0,0,1,15.35,12.1Zm.1-5.25V1.7H5.15V6.85h10.3ZM16.95,0a2.686,2.686,0,0,1,1,.2,2.627,2.627,0,0,1,.8.55l4.5,4.5a2.5,2.5,0,0,1,.55.85,2.3,2.3,0,0,1,.2.95v14.4a2.666,2.666,0,0,1-.2,1,2.666,2.666,0,0,1-1.35,1.35,2.666,2.666,0,0,1-1,.2H2.6a2.424,2.424,0,0,1-1-.2,3.344,3.344,0,0,1-.85-.55,2.633,2.633,0,0,1-.55-.8,2.686,2.686,0,0,1-.2-1V2.55a2.682,2.682,0,0,1,.2-1A2.627,2.627,0,0,1,.75.75,3.371,3.371,0,0,1,1.6.2a2.44,2.44,0,0,1,1-.2Zm.6,1.95a.757.757,0,0,0-.4-.2V7.3a1.33,1.33,0,0,1-.351.9,1.4,1.4,0,0,1-.95.35H4.75A1.4,1.4,0,0,1,3.8,8.2a1.334,1.334,0,0,1-.35-.9V1.7H2.6a.854.854,0,0,0-.85.85v18.9a.854.854,0,0,0,.85.85H21.45a.854.854,0,0,0,.85-.85V7.05a.953.953,0,0,0-.05-.3c-.066-.1-.134-.2-.2-.3Z"/></svg>