<?xml version="1.0" encoding="utf-8"?>
<!-- Created with Inkscape (http://www.inkscape.org/) -->
<!DOCTYPE svg PUBLIC "-//W3C//DTD SVG 1.1//EN" "http://www.w3.org/Graphics/SVG/1.1/DTD/svg11.dtd">
<svg version="1.1" id="Layer_2" xmlns="http://www.w3.org/2000/svg" xmlns:xlink="http://www.w3.org/1999/xlink" x="0px" y="0px"
     width="562px" height="561px" viewBox="27 109.5 562 561" enable-background="new 27 109.5 562 561" xml:space="preserve">
<path fill="none" stroke="#283030" stroke-width="13" stroke-miterlimit="10" d="M157,507c0,0,0-168.001,0-179s9.5-13,9.5-13
    s2.499,0,11,0s12.731-7.846,12.731-7.846s4.538-5.309,8.154-12.231C202.001,288.001,209,288,209,288h63
    c0,0,9.002,1.279,12.326,5.527c3.324,4.246,8.809,11.256,8.809,11.256S298,311,306,311s99,0,105.5,0s9.007,7.104,9.007,7.104
    L420,350.5"/>
<path fill="#283030" d="M217,356.5L148.5,507H414c74.334-135.057,74.313-135.057,79.5-145c6-11.5-14-16-14-16s-220.5,0-240,0
    S217,356.5,217,356.5z"/>
<path id="white" fill="#FFFFFF" d="M479,408.396l-43.331,0.229c0,0-2.428,0.352-2.379-1.636c0.049-1.988,0.159-4.505,0.159-4.505
    s0.384-2.092-1.949-2.092s-47,0-47,0s-2.022,0.779-2.066,2.271s-0.106,3.668-0.106,3.668s0.339,2.561-2.493,2.579
    c-2.832,0.018-34.315,0.216-34.315,0.216s-2.767,0.538-2.767,2.705s0,23.5,0,23.5s1.016,2.861,2.905,3.197
    c1.889,0.336,0.852-0.034,0.852-0.034s2.515,0.318,2.659,3.162S352.5,507,352.5,507h114L479,408.396z"/>
<g>
    <g>
        <path fill="#283030" d="M361.837,556.285c0.188,4.304,3.817,7.699,8.231,7.699h76.913c4.412,0,8.045-3.396,8.229-7.699
            l5.494-113.063h-104.36L361.837,556.285z M425.924,471.308c0-1.803,1.497-3.264,3.346-3.264h5.353
            c1.849,0,3.348,1.461,3.348,3.264v64.596c0,1.802-1.498,3.262-3.348,3.262h-5.353c-1.849,0-3.346-1.459-3.346-3.262V471.308z
             M402.502,471.308c0-1.803,1.497-3.264,3.346-3.264h5.354c1.849,0,3.347,1.461,3.347,3.264v64.596
            c0,1.802-1.497,3.262-3.347,3.262h-5.354c-1.848,0-3.346-1.459-3.346-3.262V471.308L402.502,471.308z M379.081,471.308
            c0-1.803,1.498-3.264,3.347-3.264h5.354c1.848,0,3.347,1.461,3.347,3.264v64.596c0,1.802-1.499,3.262-3.347,3.262h-5.354
            c-1.849,0-3.347-1.459-3.347-3.262V471.308z"/>
        <path fill="#283030" d="M464.361,412.579H428.88v-6.542c0-0.93-0.771-1.684-1.727-1.684h-37.261c-0.951,0-1.726,0.754-1.726,1.684
            v6.54h-35.48c-2.855,0-5.172,2.257-5.172,5.042v15.837h122.017v-15.837C469.531,414.835,467.215,412.579,464.361,412.579z"/>
    </g>
</g>
<line fill="none" stroke="#CB1A3A" stroke-width="35" x1="494.448" y1="210.532" x2="127.015" y2="576.948"/>
<circle fill="none" stroke="#CB1A3A" stroke-width="35" cx="307.5" cy="390.5" r="259.5"/>
</svg>
