<?xml version="1.0" encoding="utf-8"?>
<!-- Created with Inkscape (http://www.inkscape.org/) -->
<!DOCTYPE svg PUBLIC "-//W3C//DTD SVG 1.1//EN" "http://www.w3.org/Graphics/SVG/1.1/DTD/svg11.dtd">
<svg version="1.1" id="Layer_1" xmlns="http://www.w3.org/2000/svg" xmlns:xlink="http://www.w3.org/1999/xlink" x="0px" y="0px"
     width="560px" height="559px" viewBox="26.5 125 560 559" enable-background="new 26.5 125 560 559" xml:space="preserve">
<g id="Layer_1_1_" display="none">
</g>
<g id="Layer_2">
    <line fill="none" x1="360.893" y1="284.141" x2="253.989" y2="390.746"/>
    <path fill="#262F39" d="M369.1,232.68L369.1,232.68c23.063-6.802,44.728,14.16,38.688,37.434l0,0
        c-3.566,13.739,2.678,28.145,15.146,34.932l0,0c21.116,11.499,21.612,41.64,0.887,53.825l0,0
        c-12.238,7.193-18.006,21.795-13.99,35.412l0,0c7.84,28.051-26.16,30.717-37.434,38.686l0,0
        c-13.742-3.563-28.146,2.683-34.935,15.148l0,0c-11.498,21.115-41.64,21.609-53.825,0.884l0,0
        c-7.195-12.239-21.796-18.006-35.412-13.99l0,0c-23.063,6.804-44.727-14.161-38.687-37.435l0,0
        c3.566-13.74-2.68-28.145-15.147-34.932l0,0c-21.118-11.5-21.613-41.641-0.885-53.826l0,0c12.238-7.194,18.007-21.795,13.99-35.411
        l0,0c-6.801-23.063,14.161-44.726,37.434-38.686l0,0c13.741,3.565,28.145-2.68,34.933-15.147l0,0
        c11.498-21.117,41.639-21.612,53.826-0.885l0,0C340.882,230.926,355.484,236.696,369.1,232.68z"/>
    <circle fill="none" stroke="#FFFFFF" stroke-width="13" stroke-miterlimit="10" cx="308.661" cy="333.845" r="85.441"/>
    <path fill="#262F39" d="M253.989,450.5l-56.489,106c0,0-6.583,15.757,4.5,12s29.5-10,29.5-10s4.559-4.799,10,2.5
        s20.5,27.5,20.5,27.5s6.759,9.909,10.5,0s24.835-65.641,27.835-75.141s8.325-5.498,8.325-5.498s18.662-25.361,0.001-25.361
        S253.989,450.5,253.989,450.5z"/>
    <path fill="#262F39" d="M381.334,540.667c0,0-6.678,15.534-12.308,22.833c-5.633,7.299-21.211,27.5-21.211,27.5
        s-6.994,9.909-10.864,0s-25.696-65.641-28.801-75.141c-3.105-9.5-8.613-5.498-8.613-5.498S280.229,485,299.536,485
        s56.567-32,56.567-32l31.226,56.631"/>
    <path id="white" fill="none" stroke="#FFFFFF" stroke-width="12" stroke-miterlimit="10" d="M435.667,415.257
        c0,0-63.931-3.41-66.632,0s-1.122,16.9-1.122,16.9l9.838,3.778c0,0,10.08,38.646,14.972,43.688
        c4.894,5.043,4.345,14.91-1.854,23.643c-6.2,8.734-13.534,47.733-13.534,47.733s-6.931-3-8.299,0s-0.368,11.666,1.632,14
        s72.458,0.333,79.563,0c7.104-0.333,1.77-149.743,1.77-149.743H435.667L435.667,415.257z"/>
    <g>
        <path fill="#262F39" d="M425.141,484.725c13.671-10.852,18.834-39.242,20.641-53.975h4.45c1.969,0,3.559-2.313,3.559-5.165v-5.163
            c0-2.854-1.586-5.165-3.559-5.165h-77.639c-1.966,0-3.558,2.309-3.558,5.165v5.166c0,2.85,1.589,5.166,3.558,5.166h4.453
            c1.802,14.73,6.943,43.105,20.568,53.914c0.171,0.148,1.646,1.614,1.646,5.46c0,3.847-1.477,5.313-1.568,5.4
            c-13.68,10.846-18.842,39.238-20.643,53.973h-4.458c-1.966,0-3.558,2.313-3.558,5.167v5.165c0,2.854,1.589,5.167,3.558,5.167
            h77.637c1.971,0,3.561-2.307,3.561-5.167v-5.165c0-2.85-1.586-5.167-3.561-5.167h-4.448c-1.804-14.729-6.949-43.104-20.57-53.913
            c-0.165-0.154-1.651-1.618-1.651-5.46C423.558,486.287,425.044,484.816,425.141,484.725z M422.584,502.318
            c11.235,8.917,15.932,33.39,17.746,47.179h-57.84c1.805-13.784,6.5-38.252,17.771-47.194c1.608-1.296,4.332-5.324,4.332-12.185
            c0-6.858-2.724-10.884-4.352-12.192c-11.241-8.919-15.943-33.387-17.745-47.176h57.831c-1.802,13.784-6.497,38.251-17.765,47.194
            c-1.612,1.296-4.34,5.321-4.34,12.184C418.228,496.987,420.953,501.007,422.584,502.318z"/>
        <path fill="#262F39" d="M411.411,513.359c-2.646,0-17.045,4.044-20.545,31.405h20.545h20.539
            C428.449,517.403,414.054,513.359,411.411,513.359z"/>
    </g>
    <line fill="none" stroke="#CB1A3A" stroke-width="35" x1="493.448" y1="224.701" x2="126.015" y2="591.117"/>
    <circle fill="none" stroke="#CB1A3A" stroke-width="35" cx="306.5" cy="404.669" r="259.5"/>
</g>
</svg>
