<?xml version="1.0" encoding="utf-8"?>
<!-- Created with Inkscape (http://www.inkscape.org/) -->
<!DOCTYPE svg PUBLIC "-//W3C//DTD SVG 1.1//EN" "http://www.w3.org/Graphics/SVG/1.1/DTD/svg11.dtd">
<svg version="1.1" id="Layer_1" xmlns="http://www.w3.org/2000/svg" xmlns:xlink="http://www.w3.org/1999/xlink" x="0px" y="0px"
     width="570px" height="565px" viewBox="-7.5 -5 570 565" enable-background="new -7.5 -5 570 565" xml:space="preserve">
<g id="Layer_2">
    <path fill="#262F39" d="M341.153,105.511L341.153,105.511c23.063-6.802,44.728,14.16,38.688,37.434l0,0
        c-3.566,13.74,2.678,28.145,15.146,34.932l0,0c21.116,11.499,21.612,41.64,0.887,53.825l0,0
        c-12.238,7.193-18.006,21.795-13.99,35.412l0,0c7.84,28.05-26.16,30.716-37.434,38.685l0,0
        c-13.742-3.563-28.146,2.684-34.935,15.148l0,0c-11.498,21.115-41.64,21.609-53.825,0.885l0,0
        c-7.195-12.24-21.796-18.006-35.412-13.99l0,0c-23.063,6.803-44.727-14.162-38.687-37.435l0,0
        c3.566-13.74-2.68-28.145-15.147-34.932l0,0c-21.118-11.5-21.613-41.641-0.885-53.826l0,0c12.238-7.194,18.007-21.795,13.99-35.411
        l0,0c-6.801-23.063,14.161-44.726,37.434-38.686l0,0c13.741,3.565,28.145-2.68,34.933-15.147l0,0
        c11.498-21.117,41.639-21.612,53.826-0.885l0,0C312.936,103.756,327.538,109.526,341.153,105.511z"/>
    <path fill="#262F39" d="M226.042,323.33l-56.489,106c0,0-6.583,15.758,4.5,12c11.083-3.756,29.5-10,29.5-10s4.559-4.799,10,2.5
        s20.5,27.5,20.5,27.5s6.759,9.91,10.5,0c3.741-9.908,24.835-65.641,27.835-75.141s15.14-3.693,15.14-3.693
        s11.85-27.166-6.813-27.166S226.042,323.33,226.042,323.33z"/>
    <path fill="#262F39" d="M331.478,321.33l52.864,106c0,0,6.161,15.758-4.211,12c-10.371-3.756-27.607-10-27.607-10
        s-4.266-4.799-9.355,2.5s-19.187,27.5-19.187,27.5s-6.326,9.91-9.826,0c-3.501-9.908-23.239-65.641-26.049-75.141
        c-2.808-9.5-7.791-5.498-7.791-5.498s-17.063-23.361,0.399-23.361S331.478,321.33,331.478,321.33z"/>
    <circle fill="none" stroke="#FFFFFF" stroke-width="13" stroke-miterlimit="10" cx="278.554" cy="206.676" r="85.441"/>
    <circle fill="none" stroke="#009239" stroke-width="35" cx="278.554" cy="277.5" r="259.5"/>
</g>
</svg>
