<?xml version="1.0" encoding="utf-8"?>
<!-- Created with Inkscape (http://www.inkscape.org/) -->
<!DOCTYPE svg PUBLIC "-//W3C//DTD SVG 1.1//EN" "http://www.w3.org/Graphics/SVG/1.1/DTD/svg11.dtd">
<svg version="1.1" id="Layer_1" xmlns="http://www.w3.org/2000/svg" xmlns:xlink="http://www.w3.org/1999/xlink" x="0px" y="0px"
	 width="556px" height="556px" viewBox="0 0 556 556" enable-background="new 0 0 556 556" xml:space="preserve">
<path fill="none" stroke="#283030" stroke-width="13" stroke-miterlimit="10" d="M134.5,391.331c0,0,0-168.001,0-179s9.5-13,9.5-13
	s2.499,0,11,0s12.731-7.846,12.731-7.846s4.538-5.31,8.154-12.231c3.616-6.922,10.615-6.923,10.615-6.923h63
	c0,0,9.002,1.28,12.326,5.527c3.324,4.246,8.809,11.256,8.809,11.256s4.865,6.217,12.865,6.217s99,0,105.5,0
	s9.007,7.104,9.007,7.104l-0.507,32.396"/>
<g>
	<path fill="#2E2E2E" d="M459,230.331c0,0-220.5,0-240,0s-22.5,10.5-22.5,10.5l-68.5,150.5h85.405
		C212.484,385.522,212,379.568,212,373.5c0-62.408,50.592-113,113-113c46.179,0,85.881,27.704,103.411,67.395
		c39.597-71.968,40.389-73.512,44.589-81.563C479,234.831,459,230.331,459,230.331z"/>
</g>
<circle fill="none" stroke="#009239" stroke-width="35" cx="278" cy="278" r="259.5"/>
<g>
	<path fill="none" d="M385.316,386.756c-4.431,5.37-11.034,10.534-19.534,15.425c6.479,3.536,11.878,7.258,16.047,11.148
		c5.391-4.888,8.263-10,8.263-15.271c0-2.799-0.855-5.54-2.494-8.204l0.159-0.161l-0.159,0.158
		C386.957,388.809,386.194,387.776,385.316,386.756z"/>
	<path fill="none" d="M381.275,382.814c-4.367-3.666-10.287-7.166-17.593-10.464c-9.629,5.3-21.503,10.265-35.296,14.803
		c10.231,3.14,19.459,6.527,27.506,10.142C366.857,392.771,375.449,387.919,381.275,382.814z"/>
	<path fill="none" d="M328.378,418.166c10.234,3.138,19.465,6.525,27.516,10.141c10.967-4.524,19.561-9.378,25.388-14.482
		c-4.367-3.668-10.287-7.167-17.593-10.465C354.057,408.66,342.177,413.627,328.378,418.166z"/>
	<path fill="none" d="M390.087,367.047c0-2.788-0.844-5.512-2.469-8.174c-0.645-1.056-1.413-2.1-2.302-3.133
		c-4.431,5.372-11.035,10.537-19.535,15.43c6.479,3.535,11.875,7.257,16.044,11.148
		C387.215,377.431,390.087,372.317,390.087,367.047z"/>
	<path fill="none" d="M328.27,360.512v-4.398c10.281,3.147,19.548,6.546,27.625,10.173c10.968-4.523,19.562-9.377,25.388-14.481
		c-10.079-8.466-28.427-16.043-53.013-22.303v-4.4c24.285,7.438,42.919,16.273,53.559,26.211c5.391-4.887,8.264-9.999,8.264-15.269
		c0-2.727-0.803-5.391-2.354-7.999c-6.802-11.41-28.042-21.548-59.468-29.552v-3.91c-1.086-0.045-2.173-0.083-3.27-0.083
		c-43.63,0-79,35.37-79,79c0,6.076,0.709,11.984,2.008,17.667c43.169-5.647,79.242-13.729,104.237-23.419
		C345.119,365.18,337.097,362.761,328.27,360.512z"/>
	<path fill="none" d="M388.175,327.773l-0.005,0.003c2.414,3.827,3.693,7.791,3.693,11.867c0,5.372-2.153,10.622-6.226,15.692
		c0.866,1.045,1.653,2.101,2.344,3.167l0.001-0.001c2.535,3.912,3.881,7.97,3.881,12.159c0,5.37-2.152,10.617-6.222,15.685
		c0.858,1.035,1.64,2.079,2.325,3.136l0.002-0.002c2.549,3.929,3.895,7.992,3.895,12.192c0,5.369-2.151,10.616-6.22,15.684
		c0.861,1.039,1.646,2.088,2.333,3.148l-0.186,0.184l0.186-0.18c0.082,0.127,0.152,0.255,0.232,0.382
		C398.123,407.688,404,391.281,404,373.5c0-41.881-32.597-76.131-73.801-78.811C359.393,303.838,380.13,315.038,388.175,327.773z"/>
	<path fill="#2E2E2E" d="M328.27,294.088v0.495c0.646,0.026,1.288,0.064,1.93,0.106C329.559,294.488,328.919,294.287,328.27,294.088
		z"/>
	<path fill="#2E2E2E" d="M387.737,328.045l0.431-0.271c0.001,0.001,0.001,0.002,0.002,0.003l0.005-0.003
		c-8.045-12.735-28.782-23.936-57.976-33.084c-0.642-0.042-1.284-0.08-1.93-0.106v3.91
		C359.695,306.497,380.936,316.635,387.737,328.045z"/>
	<path fill="#2E2E2E" d="M387.981,358.503c-0.69-1.066-1.478-2.122-2.344-3.167c-0.108,0.135-0.21,0.27-0.321,0.404
		c0.889,1.033,1.657,2.077,2.302,3.133L387.981,358.503z"/>
	<path fill="#2E2E2E" d="M328.27,329.502c24.586,6.26,42.934,13.837,53.013,22.303c0.188-0.163,0.365-0.328,0.546-0.492
		c-10.64-9.938-29.273-18.773-53.559-26.211V329.502z"/>
	<path fill="#2E2E2E" d="M387.598,389.852l0.159-0.158l0.21-0.212c-0.686-1.057-1.467-2.101-2.325-3.136
		c-0.109,0.137-0.213,0.273-0.325,0.41C386.194,387.776,386.957,388.809,387.598,389.852z"/>
	<path fill="#2E2E2E" d="M381.825,382.318c-4.169-3.892-9.565-7.613-16.044-11.148c-0.688,0.396-1.387,0.789-2.099,1.181
		c7.306,3.298,13.226,6.798,17.593,10.464C381.464,382.649,381.643,382.483,381.825,382.318z"/>
	<path fill="#2E2E2E" d="M328.27,360.512c8.827,2.249,16.85,4.668,23.976,7.236c1.246-0.483,2.459-0.971,3.649-1.462
		c-8.077-3.627-17.344-7.025-27.625-10.173V360.512z"/>
	<path fill="#2E2E2E" d="M387.605,420.872L387.605,420.872c0.001-0.002,0-0.003,0-0.004l0.186-0.181l0.186-0.184
		c-0.688-1.061-1.472-2.109-2.333-3.148c-0.109,0.136-0.213,0.272-0.325,0.408C386.2,418.789,386.964,419.825,387.605,420.872z"/>
	<path fill="#2E2E2E" d="M352.246,398.756c1.245-0.482,2.457-0.97,3.646-1.461c-8.047-3.614-17.274-7.002-27.506-10.142
		c-0.039,0.013-0.078,0.025-0.117,0.038v4.333C337.097,393.772,345.119,396.189,352.246,398.756z"/>
	<path fill="#2E2E2E" d="M363.688,403.359c7.306,3.298,13.226,6.797,17.593,10.465c0.188-0.165,0.365-0.33,0.548-0.495
		c-4.169-3.891-9.567-7.612-16.047-11.148C365.097,402.575,364.398,402.968,363.688,403.359z"/>
	<path fill="#2E2E2E" d="M328.27,418.201v4.329c8.829,2.25,16.853,4.668,23.979,7.236c1.245-0.482,2.456-0.97,3.646-1.46
		c-8.051-3.615-17.281-7.003-27.516-10.141C328.342,418.178,328.306,418.188,328.27,418.201z"/>
	<path fill="#2E2E2E" d="M365.783,433.191c-0.686,0.395-1.383,0.787-2.093,1.179c2.531,1.143,4.885,2.312,7.076,3.502
		c0.443-0.316,0.895-0.622,1.331-0.946C370.123,435.659,368.022,434.413,365.783,433.191z"/>
	<path fill="#2E2E2E" d="M328.27,387.191c0.039-0.013,0.078-0.025,0.117-0.038c13.793-4.538,25.667-9.503,35.296-14.803
		c0.712-0.392,1.411-0.785,2.099-1.181c8.5-4.893,15.104-10.058,19.535-15.43c0.111-0.135,0.213-0.27,0.321-0.404
		c4.072-5.07,6.226-10.32,6.226-15.692c0-4.076-1.279-8.04-3.693-11.867c-0.001-0.001-0.001-0.002-0.002-0.003l-0.431,0.271
		c1.552,2.608,2.354,5.272,2.354,7.999c0,5.27-2.873,10.382-8.264,15.269c-0.181,0.164-0.358,0.329-0.546,0.492
		c-5.826,5.104-14.42,9.958-25.388,14.481c-1.19,0.491-2.403,0.979-3.649,1.462c-24.995,9.69-61.068,17.771-104.237,23.419
		c1.072,4.689,2.548,9.224,4.414,13.555C281.381,400.104,307.083,394.153,328.27,387.191z"/>
	<path fill="#2E2E2E" d="M328.378,418.166c13.799-4.539,25.679-9.506,35.311-14.807c0.71-0.392,1.408-0.784,2.094-1.179
		c8.5-4.891,15.104-10.055,19.534-15.425c0.112-0.137,0.216-0.273,0.325-0.41c4.069-5.067,6.222-10.314,6.222-15.685
		c0-4.189-1.346-8.247-3.881-12.159l-0.001,0.001l-0.363,0.37c1.625,2.662,2.469,5.386,2.469,8.174
		c0,5.271-2.872,10.384-8.262,15.271c-0.183,0.165-0.361,0.331-0.55,0.496c-5.826,5.104-14.418,9.957-25.383,14.48
		c-1.189,0.491-2.401,0.979-3.646,1.461c-22.368,8.675-53.61,16.059-90.871,21.562c3.203,4.346,6.838,8.352,10.847,11.954
		c20.951-4.004,39.824-8.74,56.048-14.07C328.306,418.188,328.342,418.178,328.378,418.166z"/>
	<path fill="#2E2E2E" d="M365.783,433.191c8.501-4.891,15.105-10.057,19.535-15.428c0.112-0.136,0.216-0.272,0.325-0.408
		c4.068-5.067,6.22-10.314,6.22-15.684c0-4.2-1.346-8.264-3.895-12.192l-0.002,0.002l-0.21,0.212l-0.159,0.161
		c1.639,2.664,2.494,5.405,2.494,8.204c0,5.271-2.872,10.383-8.263,15.271c-0.183,0.165-0.36,0.33-0.548,0.495
		c-5.827,5.104-14.421,9.958-25.388,14.482c-1.189,0.49-2.4,0.978-3.646,1.46c-15.637,6.063-35.609,11.497-58.942,16.098
		c7.845,3.441,16.354,5.637,25.285,6.354c18.009-5.331,33.264-11.335,45.1-17.849C364.4,433.979,365.098,433.586,365.783,433.191z"
		/>
	<path fill="#2E2E2E" d="M387.791,420.688l-0.186,0.181c0,0.001,0.001,0.002,0.001,0.003c0.093,0.15,0.173,0.303,0.261,0.453
		c0.111-0.146,0.23-0.287,0.342-0.435c-0.08-0.127-0.15-0.255-0.232-0.382L387.791,420.688z"/>
</g>
<circle id="black_circle_1_" fill="none" stroke="#283030" stroke-width="14" stroke-miterlimit="10" cx="325" cy="373.5" r="95"/>
</svg>
