<?xml version="1.0" encoding="utf-8"?>
<!-- Created with Inkscape (http://www.inkscape.org/) -->
<!DOCTYPE svg PUBLIC "-//W3C//DTD SVG 1.1//EN" "http://www.w3.org/Graphics/SVG/1.1/DTD/svg11.dtd">
<svg version="1.1" id="Layer_1" xmlns="http://www.w3.org/2000/svg" xmlns:xlink="http://www.w3.org/1999/xlink" x="0px" y="0px"
     width="612px" height="614px" viewBox="0 0 612 614" enable-background="new 0 0 612 614" xml:space="preserve">
<path fill="none" stroke="#283030" stroke-width="13" stroke-miterlimit="10" d="M90.604,394.777c0,0,0-120.652,0-128.551
    c0-7.899,6.822-9.336,6.822-9.336s1.795,0,7.9,0c6.105,0,9.143-5.634,9.143-5.634s3.259-3.812,5.855-8.784
    c2.597-4.971,7.624-4.972,7.624-4.972h45.244c0,0,6.465,0.919,8.853,3.97c2.387,3.049,6.326,8.084,6.326,8.084
    s3.494,4.464,9.239,4.464c5.745,0,71.097,0,75.766,0c4.667,0,6.468,5.101,6.468,5.101l-0.363,23.266"/>
<path fill="#283030" d="M133.694,286.694L84.5,394.777h190.671c53.383-96.993,53.368-96.993,57.093-104.134
    c4.31-8.258-10.055-11.49-10.055-11.49s-158.354,0-172.357,0C135.848,279.153,133.694,286.694,133.694,286.694z"/>
<circle fill="none" stroke="#283030" stroke-width="45" stroke-miterlimit="10" cx="305.5" cy="308" r="279.5"/>
<g>
    <path fill="#262F39" d="M469.256,209L469.256,209c14.932-4.403,28.958,9.167,25.047,24.235l0,0
        c-2.308,8.896,1.734,18.222,9.807,22.616l0,0c13.67,7.445,13.991,26.958,0.574,34.847l0,0c-7.923,4.656-11.657,14.11-9.059,22.926
        l0,0c5.076,18.158-16.936,19.885-24.234,25.045l0,0c-8.896-2.307-18.222,1.737-22.617,9.807l0,0
        c-7.443,13.67-26.958,13.99-34.846,0.572l0,0c-4.658-7.924-14.111-11.656-22.926-9.057l0,0
        c-14.932,4.403-28.957-9.168-25.047-24.235l0,0c2.31-8.895-1.734-18.222-9.807-22.616l0,0
        c-13.672-7.445-13.992-26.958-0.572-34.847l0,0c7.922-4.657,11.657-14.11,9.057-22.926l0,0
        c-4.403-14.931,9.168-28.956,24.235-25.045l0,0c8.896,2.308,18.222-1.735,22.616-9.806l0,0
        c7.443-13.671,26.957-13.992,34.847-0.573l0,0C450.988,207.864,460.442,211.6,469.256,209z"/>
    <path fill="#262F39" d="M394.733,350.017l-36.571,68.625c0,0-4.262,10.203,2.913,7.769c7.175-2.43,19.099-6.475,19.099-6.475
        s2.951-3.104,6.475,1.62c3.521,4.726,13.271,17.803,13.271,17.803s4.377,6.417,6.799,0c2.422-6.415,16.077-42.495,18.021-48.646
        c1.941-6.149,9.8-2.391,9.8-2.391s7.673-17.587-4.409-17.587S394.733,350.017,394.733,350.017z"/>
    <path fill="#262F39" d="M462.992,348.723l34.225,68.625c0,0,3.988,10.2-2.726,7.769c-6.715-2.433-17.873-6.475-17.873-6.475
        s-2.762-3.106-6.057,1.618c-3.295,4.728-12.421,17.805-12.421,17.805s-4.096,6.417-6.361,0
        c-2.268-6.415-15.046-42.497-16.864-48.647c-1.819-6.15-5.045-3.558-5.045-3.558s-11.046-15.124,0.259-15.124
        C441.433,370.735,462.992,348.723,462.992,348.723z"/>
    <circle fill="none" stroke="#FFFFFF" stroke-width="13" stroke-miterlimit="10" cx="428.729" cy="274.495" r="55.315"/>
</g>
<text transform="matrix(1 0 0 1 196.7261 473.0752)" stroke="#FFFFFF" stroke-width="14" stroke-miterlimit="10" font-family="'Myriad-Bold'" font-size="495.4123">?</text>
</svg>
